<svg version="1" xmlns="http://www.w3.org/2000/svg" width="682.667" height="682.667" viewBox="0 0 512.000000 512.000000"><path d="M0 256v256h512V0H0v256zm152.3-112.2l97.7 97.7-4.2 4.3-4.3 4.2-98-98-98-98 4-4c2.1-2.2 4.2-4 4.5-4 .3 0 44.5 44 98.3 97.8zm69.2-9.8l67.9 68-3.9 4-3.9 4-68.3-68.2L145 73.5l3.7-3.7c2-2.1 4-3.8 4.3-3.8.3 0 31.1 30.6 68.5 68zm68.5-11.5l39.4 39.5-3.9 4-3.9 4-39.8-39.7L242 90.5l3.7-3.7c2-2.1 4-3.8 4.3-3.8.3 0 18.3 17.8 40 39.5zm51.8-16.8c43 37.7 85 89.3 107.2 131.6 37.9 72.2 33.6 134.9-12.5 182.2-25.8 26.5-56.6 38.5-95.5 37.2-31.5-1.1-62.3-9.7-100.5-28.2-36.1-17.5-79.7-46.8-115.9-77.8-6.9-5.9-12.6-11.3-12.6-12 0-1.3 6-7.7 7.3-7.7.5 0 3.8 2.7 7.3 5.9 15.2 14.3 41.8 34.5 67.4 51.4 42.7 28 81.8 45.8 117.1 53.3 16.7 3.5 42.1 4.4 56.2 2 24.6-4.2 44.5-15.1 62.5-34.1 56.7-59.9 39.8-147.2-47.5-246.5-11.6-13.1-46.9-48.4-51.6-51.4-1.5-1-2.7-2.3-2.7-2.8 0-1 6-8.5 6.9-8.7.2-.1 3.3 2.5 6.9 5.6zm-199.6 105l67.8 67.8-4.2 4.2-4.3 4.3-67.7-67.7C96.5 182 66 151.1 66 150.6c0-1.4 6.1-7.6 7.4-7.6.6 0 31.6 30.5 68.8 67.7zm214 21.7c35.6 6.8 63.4 32.8 72.9 68.1 3.1 11.5 3.2 31.6.1 43.8-8.4 33.4-34.5 59.6-67.7 67.9-12.5 3.1-30.4 3.1-42.9 0-33.6-8.4-59.6-34.3-68.2-68.2-2.8-11.2-2.6-32.5.4-44 9.1-33.8 36.3-59.8 70.2-67.1 10.4-2.2 25.3-2.4 35.2-.5zm-186.9 86.8c-2.1 2.1-4.1 3.7-4.5 3.6-.5-.2-18.6-17.8-40.3-39.3L85 244.6l4.2-4.3 4.3-4.3 39.7 39.7 39.8 39.8-3.7 3.7z"/></svg>